<svg width="229" height="83" viewBox="0 0 229 83" fill="none" xmlns="http://www.w3.org/2000/svg">
<path d="M125.527 40.74H114.827C114.694 40.74 114.567 40.7927 114.473 40.8865C114.38 40.9802 114.327 41.1074 114.327 41.24V46.472C114.327 46.6046 114.38 46.7318 114.473 46.8256C114.567 46.9193 114.694 46.972 114.827 46.972H119V53.472C119 53.472 118.063 53.792 115.47 53.792C112.414 53.792 108.143 52.676 108.143 43.284C108.143 33.891 112.591 32.654 116.767 32.654C120.381 32.654 121.937 33.29 122.929 33.597C123.239 33.691 123.529 33.381 123.529 33.105L124.722 28.05C124.724 27.9743 124.707 27.8993 124.674 27.8314C124.641 27.7634 124.591 27.7046 124.53 27.66C124.127 27.372 121.673 26 115.472 26C108.328 26 101 29.038 101 43.65C101 58.26 109.39 60.437 116.46 60.437C122.314 60.437 125.865 57.935 125.865 57.935C126.011 57.855 126.027 57.65 126.027 57.555V41.239C126.027 41.1064 125.974 40.9792 125.881 40.8855C125.787 40.7917 125.66 40.739 125.527 40.739V40.74ZM180.178 27.248H174.152C174.086 27.2483 174.021 27.2615 173.961 27.2869C173.9 27.3124 173.845 27.3495 173.799 27.3962C173.752 27.4429 173.716 27.4983 173.691 27.5592C173.666 27.6201 173.654 27.6853 173.654 27.751L173.656 39.395H164.264V27.751C164.264 27.6853 164.252 27.6202 164.227 27.5594C164.202 27.4986 164.166 27.4433 164.12 27.3966C164.074 27.3499 164.019 27.3127 163.958 27.2872C163.898 27.2617 163.833 27.2484 163.767 27.248H157.742C157.676 27.2483 157.611 27.2615 157.551 27.2869C157.49 27.3124 157.435 27.3495 157.389 27.3962C157.342 27.4429 157.306 27.4983 157.281 27.5592C157.256 27.6201 157.244 27.6853 157.244 27.751V59.281C157.244 59.558 157.468 59.784 157.742 59.784H163.767C163.833 59.7836 163.898 59.7703 163.958 59.7447C164.019 59.7192 164.074 59.6819 164.12 59.6351C164.166 59.5883 164.203 59.5328 164.227 59.4719C164.252 59.4109 164.265 59.3458 164.264 59.28V45.794H173.656L173.64 59.28C173.64 59.558 173.864 59.784 174.14 59.784H180.178C180.244 59.7836 180.309 59.7703 180.369 59.7447C180.43 59.7192 180.485 59.6819 180.531 59.6351C180.577 59.5883 180.614 59.5328 180.638 59.4719C180.663 59.4109 180.676 59.3458 180.675 59.28V27.75C180.676 27.6843 180.663 27.6192 180.639 27.5583C180.614 27.4974 180.577 27.442 180.531 27.3953C180.485 27.3487 180.43 27.3116 180.369 27.2863C180.309 27.261 180.244 27.248 180.178 27.248V27.248ZM133.012 27.965C130.868 27.965 129.128 29.718 129.128 31.888C129.128 34.055 130.868 35.813 133.012 35.813C135.158 35.813 136.897 34.055 136.897 31.888C136.897 29.718 135.157 27.965 133.012 27.965ZM135.968 37.573H129.962C129.686 37.573 129.44 37.857 129.44 38.133V58.985C129.44 59.598 129.822 59.78 130.316 59.78H135.726C136.321 59.78 136.466 59.488 136.466 58.975V38.076C136.466 38.0103 136.454 37.9453 136.429 37.8845C136.404 37.8237 136.367 37.7685 136.321 37.7219C136.275 37.6752 136.22 37.6382 136.159 37.6128C136.099 37.5875 136.034 37.5743 135.968 37.574V37.573ZM203.574 37.62H197.594C197.528 37.6205 197.463 37.634 197.403 37.6596C197.342 37.6852 197.288 37.7225 197.242 37.7693C197.196 37.8161 197.159 37.8715 197.135 37.9324C197.11 37.9932 197.097 38.0583 197.098 38.124V53.584C197.098 53.584 195.578 54.694 193.423 54.694C191.268 54.694 190.696 53.717 190.696 51.606V38.124C190.697 38.0583 190.684 37.9931 190.659 37.9321C190.635 37.8712 190.598 37.8157 190.552 37.7689C190.506 37.7221 190.451 37.6849 190.39 37.6593C190.33 37.6337 190.265 37.6204 190.199 37.62H184.131C183.998 37.6211 183.871 37.6747 183.778 37.7691C183.685 37.8636 183.632 37.9912 183.633 38.124V52.626C183.633 58.896 187.128 60.43 191.935 60.43C195.879 60.43 199.059 58.25 199.059 58.25C199.059 58.25 199.209 59.4 199.279 59.535C199.349 59.671 199.526 59.808 199.719 59.808L203.579 59.791C203.645 59.7907 203.71 59.7775 203.771 59.752C203.832 59.7266 203.887 59.6894 203.933 59.6426C203.98 59.5958 204.017 59.5403 204.042 59.4793C204.067 59.4183 204.079 59.3529 204.079 59.287L204.076 38.121C204.075 37.9884 204.023 37.8613 203.929 37.7673C203.835 37.6733 203.709 37.6201 203.576 37.619L203.574 37.62ZM219.916 36.912C216.52 36.912 214.21 38.427 214.21 38.427V27.75C214.21 27.6843 214.198 27.6192 214.173 27.5584C214.148 27.4976 214.112 27.4423 214.066 27.3956C214.02 27.3489 213.965 27.3117 213.904 27.2862C213.844 27.2607 213.779 27.2474 213.713 27.247H207.672C207.606 27.247 207.541 27.26 207.48 27.2853C207.419 27.3107 207.364 27.3478 207.317 27.3945C207.271 27.4413 207.234 27.4967 207.209 27.5577C207.184 27.6187 207.172 27.6841 207.172 27.75V59.28C207.172 59.3459 207.184 59.4113 207.209 59.4723C207.234 59.5333 207.271 59.5888 207.317 59.6355C207.364 59.6822 207.419 59.7193 207.48 59.7447C207.541 59.77 207.606 59.783 207.672 59.783H211.864C212.054 59.783 212.196 59.686 212.301 59.515C212.404 59.345 212.555 58.061 212.555 58.061C212.555 58.061 215.025 60.401 219.703 60.401C225.193 60.401 228.343 57.617 228.343 47.899C228.343 38.181 223.313 36.911 219.915 36.911L219.916 36.912ZM217.556 54.676C215.483 54.613 214.076 53.672 214.076 53.672V43.687C214.076 43.687 215.464 42.837 217.166 42.683C219.319 42.49 221.394 43.141 221.394 48.277C221.394 53.694 220.459 54.763 217.557 54.675L217.556 54.676ZM153.867 54.558C153.604 54.558 152.93 54.665 152.237 54.665C150.017 54.665 149.264 53.633 149.264 52.297V43.431H153.784C153.85 43.431 153.915 43.4179 153.976 43.3926C154.037 43.3672 154.092 43.33 154.139 43.2831C154.185 43.2363 154.222 43.1807 154.247 43.1196C154.272 43.0585 154.285 42.993 154.284 42.927V38.071C154.284 38.0052 154.272 37.9399 154.247 37.8791C154.222 37.8182 154.185 37.7628 154.138 37.7162C154.092 37.6695 154.037 37.6325 153.976 37.6073C153.915 37.582 153.85 37.569 153.784 37.569H149.264L149.257 31.599C149.257 31.372 149.141 31.259 148.879 31.259H142.719C142.481 31.259 142.352 31.365 142.352 31.594V37.764C142.352 37.764 139.265 38.509 139.057 38.569C138.953 38.5993 138.862 38.6625 138.797 38.749C138.732 38.8355 138.697 38.9408 138.697 39.049V42.926C138.697 42.9917 138.709 43.0568 138.734 43.1176C138.759 43.1784 138.795 43.2337 138.841 43.2804C138.887 43.3271 138.942 43.3643 139.003 43.3898C139.063 43.4153 139.128 43.4286 139.194 43.429H142.352V52.757C142.352 59.687 147.212 60.367 150.492 60.367C151.989 60.367 153.782 59.887 154.078 59.777C154.258 59.71 154.361 59.525 154.361 59.324L154.365 55.059C154.363 54.9269 154.31 54.8006 154.216 54.707C154.123 54.6134 153.997 54.5596 153.865 54.557L153.867 54.558Z" fill="white"/>
<path fill-rule="evenodd" clip-rule="evenodd" d="M42.545 0C19.052 0 0 19.047 0 42.545C0 61.342 12.19 77.29 29.095 82.915C31.221 83.309 32.002 81.992 32.002 80.868C32.002 79.854 31.962 76.502 31.944 72.948C20.107 75.521 17.61 67.928 17.61 67.928C15.675 63.01 12.886 61.702 12.886 61.702C9.026 59.062 13.176 59.116 13.176 59.116C17.449 59.416 19.699 63.501 19.699 63.501C23.493 70.005 29.652 68.124 32.079 67.037C32.462 64.287 33.564 62.409 34.781 61.347C25.331 60.272 15.397 56.623 15.397 40.321C15.397 35.676 17.059 31.881 19.781 28.901C19.339 27.829 17.883 23.501 20.193 17.641C20.193 17.641 23.765 16.499 31.893 22.004C35.288 21.061 38.928 20.588 42.543 20.572C46.159 20.589 49.801 21.062 53.201 22.004C61.321 16.5 64.889 17.642 64.889 17.642C67.205 23.502 65.749 27.829 65.307 28.902C68.035 31.88 69.685 35.676 69.685 40.322C69.685 56.662 59.732 60.26 50.258 61.312C51.784 62.632 53.144 65.222 53.144 69.192C53.144 74.884 53.096 79.465 53.096 80.866C53.096 81.996 53.862 83.324 56.018 82.906C72.914 77.274 85.088 61.332 85.088 42.541C85.09 19.048 66.042 0 42.545 0Z" fill="white"/>
<path d="M16.1151 61.084C16.0201 61.296 15.6871 61.359 15.3851 61.214C15.0751 61.074 14.9031 60.787 15.0031 60.574C15.0931 60.358 15.4271 60.297 15.7361 60.442C16.0461 60.582 16.2221 60.872 16.1161 61.084H16.1151ZM17.8381 63.008C17.6351 63.195 17.2381 63.108 16.9681 62.81C16.6901 62.513 16.6381 62.116 16.8441 61.926C17.0521 61.738 17.4371 61.826 17.7141 62.123C17.9941 62.423 18.0491 62.816 17.8371 63.007L17.8381 63.008ZM19.5151 65.456C19.2551 65.638 18.8281 65.468 18.5651 65.089C18.3031 64.712 18.3031 64.259 18.5701 64.076C18.8341 63.894 19.2541 64.058 19.5201 64.433C19.7821 64.818 19.7821 65.273 19.5151 65.457V65.456ZM21.8131 67.824C21.5801 68.081 21.0831 68.012 20.7201 67.661C20.3481 67.318 20.2451 66.831 20.4781 66.574C20.7151 66.317 21.2141 66.389 21.5801 66.737C21.9501 67.079 22.0621 67.567 21.8131 67.823V67.824ZM24.9851 69.198C24.8811 69.532 24.4031 69.683 23.9211 69.542C23.4391 69.396 23.1251 69.006 23.2211 68.67C23.3211 68.334 23.8031 68.177 24.2881 68.328C24.7681 68.472 25.0831 68.858 24.9841 69.198H24.9851ZM28.4651 69.453C28.4781 69.803 28.0691 70.095 27.5631 70.101C27.0551 70.113 26.6431 69.829 26.6371 69.483C26.6371 69.129 27.0371 68.841 27.5451 68.833C28.0511 68.823 28.4651 69.105 28.4651 69.453ZM31.7051 68.902C31.7651 69.244 31.4151 69.596 30.9121 69.689C30.4181 69.781 29.9621 69.569 29.8981 69.229C29.8381 68.879 30.1951 68.529 30.6881 68.437C31.1911 68.349 31.6411 68.555 31.7051 68.903V68.902Z" fill="white"/>
</svg>
