<svg width="214" height="60" viewBox="0 0 214 60" fill="none" xmlns="http://www.w3.org/2000/svg">
<g clip-path="url(#clip0_106_75)">
<path d="M8.375 11.6571H16.3639V40.7342H31.145V48.1085H8.375V11.6571ZM34.6705 23.4141H42.3359V48.0924H34.6705V23.4141ZM38.5032 11.1396C39.3828 11.1396 40.2426 11.4005 40.974 11.8891C41.7053 12.3778 42.2753 13.0724 42.6119 13.885C42.9485 14.6977 43.0366 15.5918 42.865 16.4545C42.6934 17.3172 42.2699 18.1096 41.6479 18.7316C41.0259 19.3536 40.2335 19.7771 39.3708 19.9487C38.5081 20.1203 37.6139 20.0323 36.8013 19.6957C35.9887 19.359 35.2941 18.789 34.8054 18.0577C34.3168 17.3263 34.0559 16.4665 34.0559 15.5869C34.0559 14.4074 34.5245 13.2762 35.3585 12.4422C36.1925 11.6082 37.3237 11.1396 38.5032 11.1396M74.4209 11.6571H82.0864V33.4407L90.7869 23.3818H100.183L90.1238 34.8153L99.9725 48.1085H90.3341L82.1834 35.8988H82.0864V48.1085H74.4209V11.6571V11.6571ZM46.5891 23.4141H53.8988V26.794H53.9959C54.7332 25.5351 55.7975 24.4991 57.0758 23.7958C58.3541 23.0926 59.7989 22.7483 61.257 22.7996C69.0357 22.7996 70.4588 27.9099 70.4588 34.5565V48.1085H62.858V36.0928C62.858 33.2304 62.858 29.6241 58.8636 29.6241C54.8691 29.6241 54.2546 32.7453 54.2546 35.9635V48.1732H46.5891V23.4141Z" fill="white"/>
<path d="M116.339 32.8746C116.355 32.2524 116.243 31.6335 116.012 31.0555C115.781 30.4775 115.435 29.9525 114.995 29.5124C114.555 29.0722 114.03 28.7262 113.452 28.4952C112.874 28.2642 112.255 28.1531 111.633 28.1686C110.293 28.0838 108.973 28.5301 107.959 29.4107C106.945 30.2914 106.319 31.5357 106.215 32.8746H116.339ZM122.808 43.823C121.528 45.3562 119.925 46.5865 118.113 47.4255C116.301 48.2644 114.325 48.691 112.328 48.6745C104.663 48.6745 98.5176 43.5642 98.5176 35.6238C98.5176 27.6834 104.663 22.5893 112.328 22.5893C119.492 22.5893 123.988 27.6996 123.988 35.6238V38.0334H106.199C106.411 39.4043 107.112 40.6518 108.174 41.5441C109.236 42.4365 110.586 42.9129 111.973 42.885C113.065 42.8834 114.139 42.6053 115.095 42.0765C116.051 41.5477 116.857 40.7854 117.439 39.8609L122.808 43.823ZM139.982 29.3653C138.731 29.3267 137.496 29.6625 136.436 30.3299C135.376 30.9972 134.54 31.9657 134.034 33.1112C133.528 34.2568 133.375 35.5273 133.596 36.7602C133.816 37.993 134.399 39.1319 135.271 40.0313C136.142 40.9306 137.262 41.5493 138.488 41.8082C139.713 42.067 140.988 41.9543 142.149 41.4844C143.309 41.0145 144.304 40.2088 145.004 39.1705C145.704 38.1322 146.078 36.9085 146.079 35.6562C146.148 34.8251 146.037 33.9891 145.754 33.2045C145.472 32.42 145.024 31.7053 144.442 31.1088C143.859 30.5123 143.155 30.048 142.377 29.7472C141.599 29.4464 140.766 29.3162 139.934 29.3653M153.195 48.0923H146.079V44.858C145.19 46.0436 144.041 47.0099 142.721 47.6826C141.401 48.3554 139.944 48.7169 138.462 48.7392C131.088 48.7392 126.236 43.4187 126.236 35.8987C126.236 28.9934 130.538 22.654 137.556 22.654C139.032 22.5243 140.517 22.7503 141.888 23.3131C143.258 23.8759 144.474 24.759 145.432 25.8884H145.529V11.6571H153.195V48.0923Z" fill="white"/>
<path d="M208.502 4.00784H164.449C163.949 4.00139 163.453 4.09463 162.989 4.28212C162.525 4.46961 162.103 4.74759 161.748 5.09984C161.393 5.4521 161.111 5.87158 160.92 6.33381C160.728 6.79604 160.631 7.29176 160.633 7.79206V52.0221C160.637 52.5183 160.739 53.0088 160.934 53.4654C161.128 53.922 161.41 54.3358 161.765 54.6829C162.12 55.03 162.539 55.3036 163 55.4881C163.461 55.6726 163.953 55.7642 164.449 55.7578H208.502C209.003 55.7707 209.501 55.684 209.968 55.5026C210.436 55.3212 210.862 55.0489 211.223 54.7013C211.584 54.3538 211.873 53.938 212.072 53.4781C212.271 53.0181 212.377 52.5233 212.383 52.0221V7.79206C212.383 7.28683 212.282 6.78669 212.086 6.32113C211.89 5.85557 211.602 5.43401 211.24 5.08131C210.879 4.72862 210.45 4.45193 209.98 4.26756C209.509 4.08319 209.007 3.99488 208.502 4.00784ZM175.964 48.1085H168.298V23.4141H175.964V48.1085ZM172.131 20.0665C171.251 20.0665 170.392 19.8057 169.66 19.317C168.929 18.8283 168.359 18.1338 168.022 17.3211C167.686 16.5085 167.598 15.6143 167.769 14.7516C167.941 13.8889 168.364 13.0965 168.986 12.4745C169.608 11.8526 170.401 11.429 171.263 11.2574C172.126 11.0858 173.02 11.1739 173.833 11.5105C174.646 11.8471 175.34 12.4171 175.829 13.1485C176.317 13.8798 176.578 14.7397 176.578 15.6192C176.578 16.7987 176.11 17.9299 175.276 18.7639C174.442 19.598 173.311 20.0665 172.131 20.0665ZM204.685 48.1085H197.02V36.109C197.02 33.2466 197.02 29.6403 193.041 29.6403C189.063 29.6403 188.432 32.7614 188.432 35.9796V48.1894H180.767V23.4141H188.125V26.8102H188.222C188.961 25.5542 190.027 24.5215 191.305 23.8212C192.583 23.1209 194.027 22.7791 195.483 22.8319C203.246 22.8319 204.685 27.9422 204.685 34.5889V48.1085Z" fill="white"/>
</g>
<defs>
<clipPath id="clip0_106_75">
<rect width="214" height="60" fill="white"/>
</clipPath>
</defs>
</svg>
