<svg width="78" height="48" viewBox="0 0 78 48" fill="none" xmlns="http://www.w3.org/2000/svg">
<path d="M3.9105 17V1.352H9.5505C10.6545 1.352 11.6625 1.504 12.5745 1.808C13.4865 2.096 14.2145 2.592 14.7585 3.296C15.3025 4 15.5745 4.976 15.5745 6.224C15.5745 7.376 15.3185 8.328 14.8065 9.08C14.3105 9.816 13.6385 10.368 12.7905 10.736L16.3425 17H12.3825L9.3825 11.36H7.4385V17H3.9105ZM7.4385 8.552H9.2625C10.1905 8.552 10.8945 8.36 11.3745 7.976C11.8705 7.576 12.1185 6.992 12.1185 6.224C12.1185 5.456 11.8705 4.92 11.3745 4.616C10.8945 4.312 10.1905 4.16 9.2625 4.16H7.4385V8.552ZM21.1538 17.288C20.0658 17.288 19.2018 16.944 18.5618 16.256C17.9218 15.552 17.6018 14.696 17.6018 13.688C17.6018 12.44 18.1298 11.464 19.1858 10.76C20.2418 10.056 21.9458 9.584 24.2978 9.344C24.2658 8.816 24.1058 8.4 23.8178 8.096C23.5458 7.776 23.0818 7.616 22.4258 7.616C21.9298 7.616 21.4258 7.712 20.9138 7.904C20.4018 8.096 19.8578 8.36 19.2818 8.696L18.0098 6.368C18.7618 5.904 19.5618 5.528 20.4098 5.24C21.2738 4.952 22.1698 4.808 23.0978 4.808C24.6178 4.808 25.7858 5.248 26.6018 6.128C27.4178 7.008 27.8258 8.36 27.8258 10.184V17H24.9458L24.7058 15.776H24.6098C24.1138 16.224 23.5778 16.592 23.0018 16.88C22.4418 17.152 21.8258 17.288 21.1538 17.288ZM22.3538 14.552C22.7538 14.552 23.0978 14.464 23.3858 14.288C23.6898 14.096 23.9938 13.848 24.2978 13.544V11.456C23.0498 11.616 22.1858 11.872 21.7058 12.224C21.2258 12.56 20.9858 12.96 20.9858 13.424C20.9858 13.808 21.1058 14.096 21.3458 14.288C21.6018 14.464 21.9378 14.552 22.3538 14.552ZM37.914 21.416V17.792L38.058 15.968C37.658 16.352 37.194 16.672 36.666 16.928C36.138 17.168 35.602 17.288 35.058 17.288C33.586 17.288 32.402 16.736 31.506 15.632C30.626 14.512 30.186 12.984 30.186 11.048C30.186 9.752 30.418 8.64 30.882 7.712C31.362 6.768 31.978 6.048 32.73 5.552C33.498 5.056 34.298 4.808 35.13 4.808C35.786 4.808 36.362 4.928 36.858 5.168C37.354 5.392 37.834 5.76 38.298 6.272H38.394L38.682 5.096H41.442V21.416H37.914ZM35.97 14.408C36.354 14.408 36.698 14.328 37.002 14.168C37.322 14.008 37.626 13.728 37.914 13.328V8.456C37.61 8.168 37.282 7.968 36.93 7.856C36.594 7.744 36.266 7.688 35.946 7.688C35.386 7.688 34.89 7.96 34.458 8.504C34.026 9.032 33.81 9.864 33.81 11C33.81 12.168 33.994 13.032 34.362 13.592C34.746 14.136 35.282 14.408 35.97 14.408ZM48.1438 17.288C46.8478 17.288 45.9038 16.864 45.3118 16.016C44.7358 15.152 44.4478 13.976 44.4478 12.488V5.096H47.9758V12.032C47.9758 12.88 48.0958 13.472 48.3358 13.808C48.5758 14.128 48.9518 14.288 49.4638 14.288C49.9118 14.288 50.2878 14.184 50.5918 13.976C50.8958 13.768 51.2238 13.432 51.5758 12.968V5.096H55.1038V17H52.2238L51.9598 15.344H51.8878C51.3918 15.936 50.8478 16.408 50.2558 16.76C49.6638 17.112 48.9598 17.288 48.1438 17.288ZM63.5364 17.288C62.4004 17.288 61.3764 17.04 60.4644 16.544C59.5524 16.048 58.8324 15.336 58.3044 14.408C57.7764 13.48 57.5124 12.36 57.5124 11.048C57.5124 9.752 57.7764 8.64 58.3044 7.712C58.8484 6.784 59.5524 6.072 60.4164 5.576C61.2804 5.064 62.1844 4.808 63.1284 4.808C64.2644 4.808 65.2004 5.064 65.9364 5.576C66.6884 6.072 67.2484 6.752 67.6164 7.616C68.0004 8.464 68.1924 9.432 68.1924 10.52C68.1924 10.824 68.1764 11.128 68.1444 11.432C68.1124 11.72 68.0804 11.936 68.0484 12.08H60.9204C61.0804 12.944 61.4404 13.584 62.0004 14C62.5604 14.4 63.2324 14.6 64.0164 14.6C64.8644 14.6 65.7204 14.336 66.5844 13.808L67.7604 15.944C67.1524 16.36 66.4724 16.688 65.7204 16.928C64.9684 17.168 64.2404 17.288 63.5364 17.288ZM60.8964 9.752H65.1924C65.1924 9.096 65.0324 8.56 64.7124 8.144C64.4084 7.712 63.9044 7.496 63.2004 7.496C62.6564 7.496 62.1684 7.688 61.7364 8.072C61.3044 8.44 61.0244 9 60.8964 9.752ZM73.8703 17.288C72.6543 17.288 71.8063 16.928 71.3263 16.208C70.8623 15.472 70.6303 14.504 70.6303 13.304V0.175999H74.1583V13.448C74.1583 13.816 74.2223 14.072 74.3503 14.216C74.4943 14.36 74.6383 14.432 74.7823 14.432C74.8623 14.432 74.9263 14.432 74.9743 14.432C75.0383 14.416 75.1183 14.4 75.2143 14.384L75.6463 17C75.4543 17.08 75.2063 17.144 74.9023 17.192C74.6143 17.256 74.2703 17.288 73.8703 17.288ZM6.49509 47.288C5.47109 47.288 4.44709 47.096 3.42309 46.712C2.41509 46.328 1.51109 45.768 0.711094 45.032L2.72709 42.608C3.28709 43.088 3.91109 43.48 4.59909 43.784C5.28709 44.088 5.95109 44.24 6.59109 44.24C7.32709 44.24 7.87109 44.104 8.22309 43.832C8.59109 43.56 8.77509 43.192 8.77509 42.728C8.77509 42.232 8.56709 41.872 8.15109 41.648C7.75109 41.408 7.20709 41.144 6.51909 40.856L4.47909 39.992C3.95109 39.768 3.44709 39.472 2.96709 39.104C2.48709 38.72 2.09509 38.248 1.79109 37.688C1.48709 37.128 1.33509 36.472 1.33509 35.72C1.33509 34.856 1.56709 34.072 2.03109 33.368C2.51109 32.664 3.16709 32.104 3.99909 31.688C4.84709 31.272 5.81509 31.064 6.90309 31.064C7.79909 31.064 8.69509 31.24 9.59109 31.592C10.4871 31.944 11.2711 32.456 11.9431 33.128L10.1431 35.36C9.63109 34.96 9.11909 34.656 8.60709 34.448C8.09509 34.224 7.52709 34.112 6.90309 34.112C6.29509 34.112 5.80709 34.24 5.43909 34.496C5.08709 34.736 4.91109 35.08 4.91109 35.528C4.91109 36.008 5.13509 36.368 5.58309 36.608C6.04709 36.848 6.61509 37.104 7.28709 37.376L9.30309 38.192C10.2471 38.576 10.9991 39.104 11.5591 39.776C12.1191 40.448 12.3991 41.336 12.3991 42.44C12.3991 43.304 12.1671 44.104 11.7031 44.84C11.2391 45.576 10.5671 46.168 9.68709 46.616C8.80709 47.064 7.74309 47.288 6.49509 47.288ZM20.095 47.288C18.959 47.288 17.935 47.04 17.023 46.544C16.111 46.048 15.391 45.336 14.863 44.408C14.335 43.48 14.071 42.36 14.071 41.048C14.071 39.752 14.335 38.64 14.863 37.712C15.407 36.784 16.111 36.072 16.975 35.576C17.839 35.064 18.743 34.808 19.687 34.808C20.823 34.808 21.759 35.064 22.495 35.576C23.247 36.072 23.807 36.752 24.175 37.616C24.559 38.464 24.751 39.432 24.751 40.52C24.751 40.824 24.735 41.128 24.703 41.432C24.671 41.72 24.639 41.936 24.607 42.08H17.479C17.639 42.944 17.999 43.584 18.559 44C19.119 44.4 19.791 44.6 20.575 44.6C21.423 44.6 22.279 44.336 23.143 43.808L24.319 45.944C23.711 46.36 23.031 46.688 22.279 46.928C21.527 47.168 20.799 47.288 20.095 47.288ZM17.455 39.752H21.751C21.751 39.096 21.591 38.56 21.271 38.144C20.967 37.712 20.463 37.496 19.759 37.496C19.215 37.496 18.727 37.688 18.295 38.072C17.863 38.44 17.583 39 17.455 39.752ZM29.7843 47L25.7763 35.096H29.3283L30.8643 40.712C31.0243 41.304 31.1763 41.912 31.3203 42.536C31.4803 43.144 31.6403 43.76 31.8003 44.384H31.8963C32.0403 43.76 32.1843 43.144 32.3283 42.536C32.4883 41.912 32.6483 41.304 32.8083 40.712L34.3683 35.096H37.7523L33.8643 47H29.7843ZM39.8988 47V31.352H44.3148C45.9148 31.352 47.2988 31.624 48.4668 32.168C49.6348 32.712 50.5388 33.56 51.1788 34.712C51.8348 35.848 52.1628 37.312 52.1628 39.104C52.1628 40.896 51.8428 42.376 51.2028 43.544C50.5628 44.712 49.6668 45.584 48.5148 46.16C47.3788 46.72 46.0428 47 44.5068 47H39.8988ZM43.4268 44.144H44.0988C44.9948 44.144 45.7708 43.984 46.4268 43.664C47.0988 43.344 47.6188 42.816 47.9868 42.08C48.3548 41.344 48.5388 40.352 48.5388 39.104C48.5388 37.856 48.3548 36.88 47.9868 36.176C47.6188 35.456 47.0988 34.952 46.4268 34.664C45.7708 34.36 44.9948 34.208 44.0988 34.208H43.4268V44.144ZM60.1732 47.288C59.0372 47.288 58.0132 47.04 57.1012 46.544C56.1892 46.048 55.4692 45.336 54.9412 44.408C54.4132 43.48 54.1492 42.36 54.1492 41.048C54.1492 39.752 54.4132 38.64 54.9412 37.712C55.4852 36.784 56.1892 36.072 57.0532 35.576C57.9172 35.064 58.8212 34.808 59.7652 34.808C60.9012 34.808 61.8372 35.064 62.5732 35.576C63.3252 36.072 63.8852 36.752 64.2532 37.616C64.6372 38.464 64.8292 39.432 64.8292 40.52C64.8292 40.824 64.8132 41.128 64.7812 41.432C64.7492 41.72 64.7172 41.936 64.6852 42.08H57.5572C57.7172 42.944 58.0772 43.584 58.6372 44C59.1972 44.4 59.8692 44.6 60.6532 44.6C61.5012 44.6 62.3572 44.336 63.2212 43.808L64.3972 45.944C63.7892 46.36 63.1092 46.688 62.3572 46.928C61.6052 47.168 60.8772 47.288 60.1732 47.288ZM57.5332 39.752H61.8292C61.8292 39.096 61.6692 38.56 61.3492 38.144C61.0452 37.712 60.5412 37.496 59.8372 37.496C59.2932 37.496 58.8052 37.688 58.3732 38.072C57.9412 38.44 57.6612 39 57.5332 39.752ZM69.8624 47L65.8544 35.096H69.4064L70.9424 40.712C71.1024 41.304 71.2544 41.912 71.3984 42.536C71.5584 43.144 71.7184 43.76 71.8784 44.384H71.9744C72.1184 43.76 72.2624 43.144 72.4064 42.536C72.5664 41.912 72.7264 41.304 72.8864 40.712L74.4464 35.096H77.8304L73.9424 47H69.8624Z" fill="black"/>
</svg>
