<svg width="458" height="58" viewBox="0 0 458 58" fill="none" xmlns="http://www.w3.org/2000/svg">
<path d="M0.160001 57V4.84H13.04L21.44 28.04C21.9733 29.5333 22.48 31.1067 22.96 32.76C23.44 34.4133 23.9467 36.04 24.48 37.64H24.8C25.3333 36.04 25.8133 34.4133 26.24 32.76C26.72 31.1067 27.2267 29.5333 27.76 28.04L36 4.84H48.8V57H38.08V37.88C38.08 36.1733 38.16 34.28 38.32 32.2C38.5333 30.0667 38.7467 27.9333 38.96 25.8C39.2267 23.6667 39.44 21.7733 39.6 20.12H39.28L35.04 32.52L27.6 52.44H21.12L13.68 32.52L9.52 20.12H9.2C9.41333 21.7733 9.62667 23.6667 9.84 25.8C10.0533 27.9333 10.24 30.0667 10.4 32.2C10.6133 34.28 10.72 36.1733 10.72 37.88V57H0.160001ZM77.8975 57.96C74.1108 57.96 70.6975 57.1333 67.6575 55.48C64.6175 53.8267 62.2175 51.4533 60.4575 48.36C58.6975 45.2667 57.8175 41.5333 57.8175 37.16C57.8175 32.84 58.6975 29.1333 60.4575 26.04C62.2708 22.9467 64.6175 20.5733 67.4975 18.92C70.3775 17.2133 73.3908 16.36 76.5375 16.36C80.3242 16.36 83.4442 17.2133 85.8975 18.92C88.4042 20.5733 90.2708 22.84 91.4975 25.72C92.7775 28.5467 93.4175 31.7733 93.4175 35.4C93.4175 36.4133 93.3642 37.4267 93.2575 38.44C93.1508 39.4 93.0442 40.12 92.9375 40.6H69.1775C69.7108 43.48 70.9108 45.6133 72.7775 47C74.6442 48.3333 76.8842 49 79.4975 49C82.3242 49 85.1775 48.12 88.0575 46.36L91.9775 53.48C89.9508 54.8667 87.6842 55.96 85.1775 56.76C82.6708 57.56 80.2442 57.96 77.8975 57.96ZM69.0975 32.84H83.4175C83.4175 30.6533 82.8842 28.8667 81.8175 27.48C80.8042 26.04 79.1242 25.32 76.7775 25.32C74.9642 25.32 73.3375 25.96 71.8975 27.24C70.4575 28.4667 69.5242 30.3333 69.0975 32.84ZM113.464 57.96C109.144 57.96 105.997 56.5467 104.024 53.72C102.104 50.84 101.144 46.92 101.144 41.96V17.32H112.904V40.44C112.904 43.2667 113.304 45.24 114.104 46.36C114.904 47.4267 116.157 47.96 117.864 47.96C119.357 47.96 120.61 47.6133 121.624 46.92C122.637 46.2267 123.73 45.1067 124.904 43.56V17.32H136.664V57H127.064L126.184 51.48H125.944C124.29 53.4533 122.477 55.0267 120.504 56.2C118.53 57.3733 116.184 57.96 113.464 57.96ZM178.308 57.96C173.401 57.96 169.881 56.5467 167.748 53.72C165.668 50.8933 164.628 47.1867 164.628 42.6V26.52H159.188V17.8L165.268 17.32L166.628 6.76H176.388V17.32H185.908V26.52H176.388V42.44C176.388 44.68 176.841 46.3067 177.748 47.32C178.708 48.28 179.961 48.76 181.508 48.76C182.148 48.76 182.788 48.68 183.428 48.52C184.121 48.36 184.735 48.1733 185.268 47.96L187.108 56.52C186.095 56.84 184.841 57.16 183.348 57.48C181.908 57.8 180.228 57.96 178.308 57.96ZM193.653 57V17.32H203.253L204.053 24.28H204.373C205.813 21.6133 207.546 19.64 209.573 18.36C211.6 17.0267 213.626 16.36 215.653 16.36C216.773 16.36 217.706 16.44 218.453 16.6C219.2 16.7067 219.84 16.8933 220.373 17.16L218.453 27.32C217.76 27.1067 217.066 26.9467 216.373 26.84C215.733 26.7333 214.986 26.68 214.133 26.68C212.64 26.68 211.066 27.24 209.413 28.36C207.813 29.4267 206.48 31.2933 205.413 33.96V57H193.653ZM233.263 57.96C229.636 57.96 226.756 56.8133 224.623 54.52C222.489 52.1733 221.423 49.32 221.423 45.96C221.423 41.8 223.183 38.5467 226.703 36.2C230.223 33.8533 235.903 32.28 243.743 31.48C243.636 29.72 243.103 28.3333 242.143 27.32C241.236 26.2533 239.689 25.72 237.503 25.72C235.849 25.72 234.169 26.04 232.463 26.68C230.756 27.32 228.943 28.2 227.023 29.32L222.783 21.56C225.289 20.0133 227.956 18.76 230.783 17.8C233.663 16.84 236.649 16.36 239.743 16.36C244.809 16.36 248.703 17.8267 251.423 20.76C254.143 23.6933 255.503 28.2 255.503 34.28V57H245.903L245.103 52.92H244.783C243.129 54.4133 241.343 55.64 239.423 56.6C237.556 57.5067 235.503 57.96 233.263 57.96ZM237.263 48.84C238.596 48.84 239.743 48.5467 240.703 47.96C241.716 47.32 242.729 46.4933 243.743 45.48V38.52C239.583 39.0533 236.703 39.9067 235.103 41.08C233.503 42.2 232.703 43.5333 232.703 45.08C232.703 46.36 233.103 47.32 233.903 47.96C234.756 48.5467 235.876 48.84 237.263 48.84ZM286.25 57.96C284.49 57.96 282.703 57.5333 280.89 56.68C279.13 55.7733 277.477 54.4667 275.93 52.76H275.61L274.65 57H265.45V0.919997H277.21V14.68L276.89 20.76C278.437 19.3733 280.117 18.3067 281.93 17.56C283.743 16.76 285.557 16.36 287.37 16.36C290.57 16.36 293.343 17.1867 295.69 18.84C298.037 20.4933 299.823 22.84 301.05 25.88C302.33 28.8667 302.97 32.3867 302.97 36.44C302.97 40.9733 302.17 44.8667 300.57 48.12C298.97 51.32 296.89 53.7733 294.33 55.48C291.823 57.1333 289.13 57.96 286.25 57.96ZM283.53 48.36C285.557 48.36 287.29 47.4267 288.73 45.56C290.17 43.6933 290.89 40.7333 290.89 36.68C290.89 29.5333 288.597 25.96 284.01 25.96C281.663 25.96 279.397 27.16 277.21 29.56V45.8C278.277 46.76 279.343 47.4267 280.41 47.8C281.477 48.1733 282.517 48.36 283.53 48.36ZM320.45 57.96C316.823 57.96 313.943 56.8133 311.81 54.52C309.677 52.1733 308.61 49.32 308.61 45.96C308.61 41.8 310.37 38.5467 313.89 36.2C317.41 33.8533 323.09 32.28 330.93 31.48C330.823 29.72 330.29 28.3333 329.33 27.32C328.423 26.2533 326.877 25.72 324.69 25.72C323.037 25.72 321.357 26.04 319.65 26.68C317.943 27.32 316.13 28.2 314.21 29.32L309.97 21.56C312.477 20.0133 315.143 18.76 317.97 17.8C320.85 16.84 323.837 16.36 326.93 16.36C331.997 16.36 335.89 17.8267 338.61 20.76C341.33 23.6933 342.69 28.2 342.69 34.28V57H333.09L332.29 52.92H331.97C330.317 54.4133 328.53 55.64 326.61 56.6C324.743 57.5067 322.69 57.96 320.45 57.96ZM324.45 48.84C325.783 48.84 326.93 48.5467 327.89 47.96C328.903 47.32 329.917 46.4933 330.93 45.48V38.52C326.77 39.0533 323.89 39.9067 322.29 41.08C320.69 42.2 319.89 43.5333 319.89 45.08C319.89 46.36 320.29 47.32 321.09 47.96C321.943 48.5467 323.063 48.84 324.45 48.84ZM363.438 57.96C359.384 57.96 356.558 56.76 354.958 54.36C353.411 51.9067 352.638 48.68 352.638 44.68V0.919997H364.398V45.16C364.398 46.3867 364.611 47.24 365.038 47.72C365.518 48.2 365.998 48.44 366.478 48.44C366.744 48.44 366.958 48.44 367.118 48.44C367.331 48.3867 367.598 48.3333 367.918 48.28L369.358 57C368.718 57.2667 367.891 57.48 366.878 57.64C365.918 57.8533 364.771 57.96 363.438 57.96ZM375.528 57V0.919997H387.288V14.68L386.728 21.8C388.221 20.4667 389.955 19.24 391.928 18.12C393.955 16.9467 396.301 16.36 398.968 16.36C403.288 16.36 406.408 17.8 408.328 20.68C410.301 23.5067 411.288 27.4 411.288 32.36V57H399.528V33.88C399.528 31 399.128 29.0267 398.328 27.96C397.581 26.8933 396.355 26.36 394.648 26.36C393.155 26.36 391.875 26.7067 390.808 27.4C389.741 28.04 388.568 28.9733 387.288 30.2V57H375.528ZM438.271 57.96C434.911 57.96 431.738 57.16 428.751 55.56C425.818 53.9067 423.445 51.5333 421.631 48.44C419.818 45.2933 418.911 41.5333 418.911 37.16C418.911 32.7333 419.818 28.9733 421.631 25.88C423.445 22.7867 425.818 20.44 428.751 18.84C431.738 17.1867 434.911 16.36 438.271 16.36C441.631 16.36 444.778 17.1867 447.711 18.84C450.645 20.44 453.018 22.7867 454.831 25.88C456.645 28.9733 457.551 32.7333 457.551 37.16C457.551 41.5333 456.645 45.2933 454.831 48.44C453.018 51.5333 450.645 53.9067 447.711 55.56C444.778 57.16 441.631 57.96 438.271 57.96ZM438.271 48.44C440.671 48.44 442.485 47.4267 443.711 45.4C444.938 43.32 445.551 40.5733 445.551 37.16C445.551 33.6933 444.938 30.9467 443.711 28.92C442.485 26.8933 440.671 25.88 438.271 25.88C435.818 25.88 433.978 26.8933 432.751 28.92C431.578 30.9467 430.991 33.6933 430.991 37.16C430.991 40.5733 431.578 43.32 432.751 45.4C433.978 47.4267 435.818 48.44 438.271 48.44Z" fill="white"/>
</svg>
